<mxfile host="app.diagrams.net" modified="2024-06-04T11:04:06.183Z" agent="Mozilla/5.0 (Windows NT 10.0; Win64; x64) AppleWebKit/537.36 (KHTML, like Gecko) Chrome/125.0.0.0 Safari/537.36 Edg/125.0.0.0" etag="WNtFi0FHFCOLTNuNDci0" version="24.4.13" type="device">
  <diagram name="第 1 页" id="8_XefZmYLh7NYhbiKZUy">
    <mxGraphModel dx="822" dy="361" grid="1" gridSize="10" guides="1" tooltips="1" connect="1" arrows="1" fold="1" page="1" pageScale="1" pageWidth="50000" pageHeight="50000" math="0" shadow="0">
      <root>
        <mxCell id="0" />
        <mxCell id="1" parent="0" />
        <mxCell id="uhnmfXoRWIDM9DYsPJOd-3" value="FJS文件" style="rounded=1;whiteSpace=wrap;html=1;" parent="1" vertex="1">
          <mxGeometry x="50" y="440" width="100" height="40" as="geometry" />
        </mxCell>
        <mxCell id="uhnmfXoRWIDM9DYsPJOd-4" value="args.ticket" style="rhombus;whiteSpace=wrap;html=1;" parent="1" vertex="1">
          <mxGeometry x="190" y="430" width="100" height="60" as="geometry" />
        </mxCell>
        <mxCell id="uhnmfXoRWIDM9DYsPJOd-5" value="" style="endArrow=classic;html=1;rounded=0;exitX=1;exitY=0.5;exitDx=0;exitDy=0;entryX=0.07;entryY=0.533;entryDx=0;entryDy=0;entryPerimeter=0;" parent="1" source="uhnmfXoRWIDM9DYsPJOd-3" target="uhnmfXoRWIDM9DYsPJOd-4" edge="1">
          <mxGeometry width="50" height="50" relative="1" as="geometry">
            <mxPoint x="660" y="450" as="sourcePoint" />
            <mxPoint x="710" y="400" as="targetPoint" />
          </mxGeometry>
        </mxCell>
        <mxCell id="uhnmfXoRWIDM9DYsPJOd-6" value="" style="endArrow=classic;html=1;rounded=0;exitX=1;exitY=0.5;exitDx=0;exitDy=0;entryX=0;entryY=0.5;entryDx=0;entryDy=0;" parent="1" source="uhnmfXoRWIDM9DYsPJOd-4" target="uhnmfXoRWIDM9DYsPJOd-10" edge="1">
          <mxGeometry relative="1" as="geometry">
            <mxPoint x="640" y="420" as="sourcePoint" />
            <mxPoint x="450" y="460" as="targetPoint" />
          </mxGeometry>
        </mxCell>
        <mxCell id="uhnmfXoRWIDM9DYsPJOd-9" value="Y" style="edgeLabel;html=1;align=center;verticalAlign=middle;resizable=0;points=[];" parent="uhnmfXoRWIDM9DYsPJOd-6" vertex="1" connectable="0">
          <mxGeometry x="-0.0364" y="-1" relative="1" as="geometry">
            <mxPoint as="offset" />
          </mxGeometry>
        </mxCell>
        <mxCell id="uhnmfXoRWIDM9DYsPJOd-10" value="TbyT_build_flow（FD）" style="rounded=1;whiteSpace=wrap;html=1;" parent="1" vertex="1">
          <mxGeometry x="350" y="440" width="140" height="40" as="geometry" />
        </mxCell>
        <mxCell id="uhnmfXoRWIDM9DYsPJOd-18" value="" style="endArrow=classic;html=1;rounded=0;entryX=0.436;entryY=1;entryDx=0;entryDy=0;exitX=0;exitY=0.5;exitDx=0;exitDy=0;entryPerimeter=0;" parent="1" source="uhnmfXoRWIDM9DYsPJOd-10" target="uhnmfXoRWIDM9DYsPJOd-20" edge="1">
          <mxGeometry width="50" height="50" relative="1" as="geometry">
            <mxPoint x="390" y="460" as="sourcePoint" />
            <mxPoint x="390" y="380" as="targetPoint" />
          </mxGeometry>
        </mxCell>
        <mxCell id="uhnmfXoRWIDM9DYsPJOd-20" value="read_config(args.ticket,&lt;div&gt;setup,DP,FD)&lt;/div&gt;" style="rounded=1;whiteSpace=wrap;html=1;" parent="1" vertex="1">
          <mxGeometry x="290" y="320" width="140" height="50" as="geometry" />
        </mxCell>
        <mxCell id="uhnmfXoRWIDM9DYsPJOd-21" value="build_ticket(FD[ticket_order[_c]],link)" style="rounded=1;whiteSpace=wrap;html=1;" parent="1" vertex="1">
          <mxGeometry x="690" y="440" width="230" height="40" as="geometry" />
        </mxCell>
        <mxCell id="uhnmfXoRWIDM9DYsPJOd-22" value="" style="endArrow=classic;html=1;rounded=0;exitX=1;exitY=0.5;exitDx=0;exitDy=0;entryX=0;entryY=0.5;entryDx=0;entryDy=0;" parent="1" source="lxwAi-lOHqK1RA8WdTRf-14" target="uhnmfXoRWIDM9DYsPJOd-21" edge="1">
          <mxGeometry width="50" height="50" relative="1" as="geometry">
            <mxPoint x="560" y="310" as="sourcePoint" />
            <mxPoint x="760" y="310" as="targetPoint" />
          </mxGeometry>
        </mxCell>
        <mxCell id="uhnmfXoRWIDM9DYsPJOd-23" value="pre_build(TD,LINK)" style="rounded=1;whiteSpace=wrap;html=1;" parent="1" vertex="1">
          <mxGeometry x="470" y="500" width="120" height="40" as="geometry" />
        </mxCell>
        <mxCell id="uhnmfXoRWIDM9DYsPJOd-24" value="build_ticket_dir(TD,LINK)" style="rounded=1;whiteSpace=wrap;html=1;" parent="1" vertex="1">
          <mxGeometry x="451" y="550" width="150" height="40" as="geometry" />
        </mxCell>
        <mxCell id="uhnmfXoRWIDM9DYsPJOd-25" value="write_ticket(TD,LINK)" style="rounded=1;whiteSpace=wrap;html=1;" parent="1" vertex="1">
          <mxGeometry x="451" y="610" width="149" height="40" as="geometry" />
        </mxCell>
        <mxCell id="uhnmfXoRWIDM9DYsPJOd-27" value="" style="endArrow=classic;html=1;rounded=0;entryX=1;entryY=0.5;entryDx=0;entryDy=0;" parent="1" target="uhnmfXoRWIDM9DYsPJOd-23" edge="1">
          <mxGeometry width="50" height="50" relative="1" as="geometry">
            <mxPoint x="800" y="520" as="sourcePoint" />
            <mxPoint x="1060" y="400" as="targetPoint" />
          </mxGeometry>
        </mxCell>
        <mxCell id="uhnmfXoRWIDM9DYsPJOd-28" value="" style="endArrow=classic;html=1;rounded=0;entryX=1;entryY=0.5;entryDx=0;entryDy=0;" parent="1" target="uhnmfXoRWIDM9DYsPJOd-24" edge="1">
          <mxGeometry width="50" height="50" relative="1" as="geometry">
            <mxPoint x="800" y="570" as="sourcePoint" />
            <mxPoint x="911" y="390" as="targetPoint" />
          </mxGeometry>
        </mxCell>
        <mxCell id="uhnmfXoRWIDM9DYsPJOd-29" value="" style="endArrow=classic;html=1;rounded=0;entryX=1;entryY=0.5;entryDx=0;entryDy=0;" parent="1" target="uhnmfXoRWIDM9DYsPJOd-25" edge="1">
          <mxGeometry width="50" height="50" relative="1" as="geometry">
            <mxPoint x="800" y="630" as="sourcePoint" />
            <mxPoint x="921" y="400" as="targetPoint" />
          </mxGeometry>
        </mxCell>
        <mxCell id="F6Payq0pzFVPB_MVqvsb-1" value="" style="endArrow=classic;html=1;rounded=0;exitX=0.5;exitY=1;exitDx=0;exitDy=0;" parent="1" source="uhnmfXoRWIDM9DYsPJOd-21" edge="1">
          <mxGeometry width="50" height="50" relative="1" as="geometry">
            <mxPoint x="660" y="620" as="sourcePoint" />
            <mxPoint x="805" y="680" as="targetPoint" />
          </mxGeometry>
        </mxCell>
        <mxCell id="F6Payq0pzFVPB_MVqvsb-2" value="" style="endArrow=classic;html=1;rounded=0;exitX=0.5;exitY=1;exitDx=0;exitDy=0;" parent="1" source="uhnmfXoRWIDM9DYsPJOd-25" edge="1">
          <mxGeometry width="50" height="50" relative="1" as="geometry">
            <mxPoint x="490" y="620" as="sourcePoint" />
            <mxPoint x="526" y="890" as="targetPoint" />
          </mxGeometry>
        </mxCell>
        <mxCell id="F6Payq0pzFVPB_MVqvsb-3" value="build_flow_dir(list_flow,TD)" style="rounded=1;whiteSpace=wrap;html=1;" parent="1" vertex="1">
          <mxGeometry x="320" y="730" width="170" height="40" as="geometry" />
        </mxCell>
        <mxCell id="F6Payq0pzFVPB_MVqvsb-4" value="build_flow(list_flow,TD,LINK)" style="rounded=1;whiteSpace=wrap;html=1;" parent="1" vertex="1">
          <mxGeometry x="601" y="760" width="170" height="40" as="geometry" />
        </mxCell>
        <mxCell id="F6Payq0pzFVPB_MVqvsb-5" value="build_run(LINK,TD)" style="rounded=1;whiteSpace=wrap;html=1;" parent="1" vertex="1">
          <mxGeometry x="345" y="830" width="150" height="40" as="geometry" />
        </mxCell>
        <mxCell id="F6Payq0pzFVPB_MVqvsb-8" value="" style="endArrow=classic;html=1;rounded=0;entryX=1;entryY=0.5;entryDx=0;entryDy=0;" parent="1" target="F6Payq0pzFVPB_MVqvsb-3" edge="1">
          <mxGeometry width="50" height="50" relative="1" as="geometry">
            <mxPoint x="530" y="750" as="sourcePoint" />
            <mxPoint x="540" y="570" as="targetPoint" />
          </mxGeometry>
        </mxCell>
        <mxCell id="F6Payq0pzFVPB_MVqvsb-9" value="" style="endArrow=classic;html=1;rounded=0;entryX=0;entryY=0.5;entryDx=0;entryDy=0;" parent="1" target="F6Payq0pzFVPB_MVqvsb-4" edge="1">
          <mxGeometry width="50" height="50" relative="1" as="geometry">
            <mxPoint x="530" y="780" as="sourcePoint" />
            <mxPoint x="590" y="780" as="targetPoint" />
          </mxGeometry>
        </mxCell>
        <mxCell id="F6Payq0pzFVPB_MVqvsb-10" value="" style="endArrow=classic;html=1;rounded=0;entryX=1;entryY=0.5;entryDx=0;entryDy=0;" parent="1" target="F6Payq0pzFVPB_MVqvsb-5" edge="1">
          <mxGeometry width="50" height="50" relative="1" as="geometry">
            <mxPoint x="530" y="850" as="sourcePoint" />
            <mxPoint x="540" y="570" as="targetPoint" />
          </mxGeometry>
        </mxCell>
        <mxCell id="F6Payq0pzFVPB_MVqvsb-11" value="" style="endArrow=classic;html=1;rounded=0;exitX=0.5;exitY=1;exitDx=0;exitDy=0;" parent="1" source="F6Payq0pzFVPB_MVqvsb-4" edge="1">
          <mxGeometry width="50" height="50" relative="1" as="geometry">
            <mxPoint x="660" y="730" as="sourcePoint" />
            <mxPoint x="686" y="1120" as="targetPoint" />
          </mxGeometry>
        </mxCell>
        <mxCell id="F6Payq0pzFVPB_MVqvsb-12" value="" style="endArrow=none;html=1;rounded=0;" parent="1" edge="1">
          <mxGeometry width="50" height="50" relative="1" as="geometry">
            <mxPoint x="690" y="840" as="sourcePoint" />
            <mxPoint x="750" y="840" as="targetPoint" />
          </mxGeometry>
        </mxCell>
        <mxCell id="F6Payq0pzFVPB_MVqvsb-13" value="extend_flow_info(TD,_flow)" style="rounded=1;whiteSpace=wrap;html=1;" parent="1" vertex="1">
          <mxGeometry x="750" y="820" width="150" height="40" as="geometry" />
        </mxCell>
        <mxCell id="F6Payq0pzFVPB_MVqvsb-14" value="complete_flow_data(TD,LINK,flow_name)" style="rounded=1;whiteSpace=wrap;html=1;" parent="1" vertex="1">
          <mxGeometry x="750" y="880" width="380" height="40" as="geometry" />
        </mxCell>
        <mxCell id="F6Payq0pzFVPB_MVqvsb-15" value="collect_flow_output(TD,LINK,flow_name)" style="rounded=1;whiteSpace=wrap;html=1;" parent="1" vertex="1">
          <mxGeometry x="745" y="940" width="240" height="40" as="geometry" />
        </mxCell>
        <mxCell id="F6Payq0pzFVPB_MVqvsb-16" value="" style="endArrow=none;html=1;rounded=0;entryX=0;entryY=0.5;entryDx=0;entryDy=0;" parent="1" target="F6Payq0pzFVPB_MVqvsb-14" edge="1">
          <mxGeometry width="50" height="50" relative="1" as="geometry">
            <mxPoint x="690" y="900" as="sourcePoint" />
            <mxPoint x="710" y="680" as="targetPoint" />
          </mxGeometry>
        </mxCell>
        <mxCell id="F6Payq0pzFVPB_MVqvsb-17" value="" style="endArrow=none;html=1;rounded=0;entryX=0;entryY=0.5;entryDx=0;entryDy=0;" parent="1" target="F6Payq0pzFVPB_MVqvsb-15" edge="1">
          <mxGeometry width="50" height="50" relative="1" as="geometry">
            <mxPoint x="690" y="960" as="sourcePoint" />
            <mxPoint x="710" y="680" as="targetPoint" />
          </mxGeometry>
        </mxCell>
        <mxCell id="lxwAi-lOHqK1RA8WdTRf-1" value="get_run_csh" style="rounded=1;whiteSpace=wrap;html=1;" parent="1" vertex="1">
          <mxGeometry x="270" y="910" width="100" height="40" as="geometry" />
        </mxCell>
        <mxCell id="lxwAi-lOHqK1RA8WdTRf-2" value="" style="endArrow=classic;html=1;rounded=0;exitX=0.5;exitY=1;exitDx=0;exitDy=0;" parent="1" source="F6Payq0pzFVPB_MVqvsb-5" edge="1">
          <mxGeometry width="50" height="50" relative="1" as="geometry">
            <mxPoint x="660" y="790" as="sourcePoint" />
            <mxPoint x="420" y="1020" as="targetPoint" />
          </mxGeometry>
        </mxCell>
        <mxCell id="lxwAi-lOHqK1RA8WdTRf-3" value="" style="endArrow=classic;html=1;rounded=0;exitX=0.75;exitY=1;exitDx=0;exitDy=0;" parent="1" source="F6Payq0pzFVPB_MVqvsb-14" edge="1">
          <mxGeometry width="50" height="50" relative="1" as="geometry">
            <mxPoint x="660" y="790" as="sourcePoint" />
            <mxPoint x="1035" y="1080" as="targetPoint" />
          </mxGeometry>
        </mxCell>
        <mxCell id="lxwAi-lOHqK1RA8WdTRf-4" value="write_line" style="rounded=1;whiteSpace=wrap;html=1;" parent="1" vertex="1">
          <mxGeometry x="1090" y="940" width="100" height="40" as="geometry" />
        </mxCell>
        <mxCell id="lxwAi-lOHqK1RA8WdTRf-5" value="" style="endArrow=none;html=1;rounded=0;entryX=1;entryY=0.5;entryDx=0;entryDy=0;" parent="1" target="lxwAi-lOHqK1RA8WdTRf-1" edge="1">
          <mxGeometry width="50" height="50" relative="1" as="geometry">
            <mxPoint x="420" y="930" as="sourcePoint" />
            <mxPoint x="710" y="860" as="targetPoint" />
          </mxGeometry>
        </mxCell>
        <mxCell id="lxwAi-lOHqK1RA8WdTRf-6" value="" style="endArrow=none;html=1;rounded=0;entryX=0;entryY=0.5;entryDx=0;entryDy=0;" parent="1" target="lxwAi-lOHqK1RA8WdTRf-4" edge="1">
          <mxGeometry width="50" height="50" relative="1" as="geometry">
            <mxPoint x="1040" y="960" as="sourcePoint" />
            <mxPoint x="1080" y="960" as="targetPoint" />
          </mxGeometry>
        </mxCell>
        <mxCell id="lxwAi-lOHqK1RA8WdTRf-7" value="get_file_location" style="rounded=1;whiteSpace=wrap;html=1;" parent="1" vertex="1">
          <mxGeometry x="1090" y="1010" width="100" height="40" as="geometry" />
        </mxCell>
        <mxCell id="lxwAi-lOHqK1RA8WdTRf-8" value="" style="endArrow=none;html=1;rounded=0;entryX=0;entryY=0.5;entryDx=0;entryDy=0;" parent="1" target="lxwAi-lOHqK1RA8WdTRf-7" edge="1">
          <mxGeometry width="50" height="50" relative="1" as="geometry">
            <mxPoint x="1040" y="1030" as="sourcePoint" />
            <mxPoint x="710" y="860" as="targetPoint" />
          </mxGeometry>
        </mxCell>
        <mxCell id="lxwAi-lOHqK1RA8WdTRf-9" value="find_flow(flow,list_flow)" style="rounded=1;whiteSpace=wrap;html=1;" parent="1" vertex="1">
          <mxGeometry x="120" y="660" width="145" height="40" as="geometry" />
        </mxCell>
        <mxCell id="lxwAi-lOHqK1RA8WdTRf-11" value="循环" style="shape=trapezoid;perimeter=trapezoidPerimeter;whiteSpace=wrap;html=1;fixedSize=1;" parent="1" vertex="1">
          <mxGeometry x="305" y="660" width="110" height="40" as="geometry" />
        </mxCell>
        <mxCell id="lxwAi-lOHqK1RA8WdTRf-12" value="" style="endArrow=classic;html=1;rounded=0;entryX=1;entryY=0.5;entryDx=0;entryDy=0;" parent="1" target="lxwAi-lOHqK1RA8WdTRf-11" edge="1">
          <mxGeometry width="50" height="50" relative="1" as="geometry">
            <mxPoint x="530" y="680" as="sourcePoint" />
            <mxPoint x="710" y="610" as="targetPoint" />
          </mxGeometry>
        </mxCell>
        <mxCell id="lxwAi-lOHqK1RA8WdTRf-13" value="" style="endArrow=none;html=1;rounded=0;exitX=0;exitY=0.5;exitDx=0;exitDy=0;entryX=1;entryY=0.5;entryDx=0;entryDy=0;" parent="1" source="lxwAi-lOHqK1RA8WdTRf-11" target="lxwAi-lOHqK1RA8WdTRf-9" edge="1">
          <mxGeometry width="50" height="50" relative="1" as="geometry">
            <mxPoint x="660" y="660" as="sourcePoint" />
            <mxPoint x="710" y="610" as="targetPoint" />
          </mxGeometry>
        </mxCell>
        <mxCell id="lxwAi-lOHqK1RA8WdTRf-14" value="循环" style="shape=trapezoid;perimeter=trapezoidPerimeter;whiteSpace=wrap;html=1;fixedSize=1;" parent="1" vertex="1">
          <mxGeometry x="540" y="440" width="110" height="40" as="geometry" />
        </mxCell>
        <mxCell id="lxwAi-lOHqK1RA8WdTRf-15" value="" style="endArrow=classic;html=1;rounded=0;exitX=1;exitY=0.5;exitDx=0;exitDy=0;entryX=0;entryY=0.5;entryDx=0;entryDy=0;" parent="1" source="uhnmfXoRWIDM9DYsPJOd-10" target="lxwAi-lOHqK1RA8WdTRf-14" edge="1">
          <mxGeometry width="50" height="50" relative="1" as="geometry">
            <mxPoint x="660" y="660" as="sourcePoint" />
            <mxPoint x="710" y="610" as="targetPoint" />
          </mxGeometry>
        </mxCell>
        <mxCell id="mhta7YEURF0iadP7prVW-1" value="W.write_script" style="rounded=1;whiteSpace=wrap;html=1;fillColor=#FF0000;" parent="1" vertex="1">
          <mxGeometry x="745" y="1090" width="170" height="40" as="geometry" />
        </mxCell>
        <mxCell id="mhta7YEURF0iadP7prVW-2" value="循环" style="shape=trapezoid;perimeter=trapezoidPerimeter;whiteSpace=wrap;html=1;fixedSize=1;" parent="1" vertex="1">
          <mxGeometry x="790" y="1020" width="80" height="40" as="geometry" />
        </mxCell>
        <mxCell id="mhta7YEURF0iadP7prVW-3" value="" style="endArrow=classic;html=1;rounded=0;entryX=0;entryY=0.5;entryDx=0;entryDy=0;" parent="1" target="mhta7YEURF0iadP7prVW-2" edge="1">
          <mxGeometry width="50" height="50" relative="1" as="geometry">
            <mxPoint x="690" y="1040" as="sourcePoint" />
            <mxPoint x="810" y="1030" as="targetPoint" />
          </mxGeometry>
        </mxCell>
        <mxCell id="mhta7YEURF0iadP7prVW-4" value="" style="endArrow=classic;html=1;rounded=0;exitX=0.5;exitY=1;exitDx=0;exitDy=0;entryX=0.5;entryY=0;entryDx=0;entryDy=0;" parent="1" source="mhta7YEURF0iadP7prVW-2" target="mhta7YEURF0iadP7prVW-1" edge="1">
          <mxGeometry width="50" height="50" relative="1" as="geometry">
            <mxPoint x="760" y="1080" as="sourcePoint" />
            <mxPoint x="810" y="1030" as="targetPoint" />
          </mxGeometry>
        </mxCell>
        <mxCell id="mhta7YEURF0iadP7prVW-5" value="开始将template写入指定的文件夹" style="shape=document;whiteSpace=wrap;html=1;boundedLbl=1;" parent="1" vertex="1">
          <mxGeometry x="780" y="1130" width="120" height="80" as="geometry" />
        </mxCell>
        <mxCell id="mhta7YEURF0iadP7prVW-23" value="innovusFP" style="swimlane;childLayout=stackLayout;resizeParent=1;resizeParentMax=0;startSize=40;horizontal=0;horizontalStack=1;" parent="1" vertex="1">
          <mxGeometry x="410" y="1470" width="1300" height="820" as="geometry" />
        </mxCell>
        <mxCell id="mhta7YEURF0iadP7prVW-24" value="STEP_INVS_Setup    " style="swimlane;startSize=50;" parent="mhta7YEURF0iadP7prVW-23" vertex="1">
          <mxGeometry x="40" width="250" height="820" as="geometry">
            <mxRectangle x="40" width="40" height="480" as="alternateBounds" />
          </mxGeometry>
        </mxCell>
        <mxCell id="mhta7YEURF0iadP7prVW-31" value="data-&amp;gt;TD" style="swimlane;childLayout=stackLayout;horizontal=1;startSize=50;horizontalStack=0;rounded=1;fontSize=14;fontStyle=0;strokeWidth=2;resizeParent=0;resizeLast=1;shadow=0;dashed=0;align=center;arcSize=4;whiteSpace=wrap;html=1;" parent="mhta7YEURF0iadP7prVW-24" vertex="1">
          <mxGeometry x="40" y="90" width="160" height="120" as="geometry" />
        </mxCell>
        <mxCell id="mhta7YEURF0iadP7prVW-32" value="1.&amp;lt;&amp;gt;TP-VERSION&amp;lt;&amp;gt;&lt;div&gt;2.&amp;lt;&amp;gt;TP-FLOW_NAME&amp;lt;&amp;gt;&lt;/div&gt;" style="align=left;strokeColor=none;fillColor=none;spacingLeft=4;fontSize=12;verticalAlign=top;resizable=0;rotatable=0;part=1;html=1;" parent="mhta7YEURF0iadP7prVW-31" vertex="1">
          <mxGeometry y="50" width="160" height="70" as="geometry" />
        </mxCell>
        <mxCell id="mhta7YEURF0iadP7prVW-33" value="common_script" style="swimlane;childLayout=stackLayout;horizontal=1;startSize=50;horizontalStack=0;rounded=1;fontSize=14;fontStyle=0;strokeWidth=2;resizeParent=0;resizeLast=1;shadow=0;dashed=0;align=center;arcSize=4;whiteSpace=wrap;html=1;" parent="mhta7YEURF0iadP7prVW-24" vertex="1">
          <mxGeometry x="27.5" y="260" width="185" height="120" as="geometry" />
        </mxCell>
        <mxCell id="mhta7YEURF0iadP7prVW-34" value="1.&amp;lt;&amp;gt;SFILE-prepare_env.tcl&amp;lt;&amp;gt;&lt;div&gt;2.&amp;lt;&amp;gt;SFILE-global_setting.tcl&amp;lt;&amp;gt;&lt;/div&gt;&lt;div&gt;3.&amp;lt;&amp;gt;SFILE-update_design.tcl&amp;lt;&amp;gt;&lt;/div&gt;" style="align=left;strokeColor=none;fillColor=none;spacingLeft=4;fontSize=12;verticalAlign=top;resizable=0;rotatable=0;part=1;html=1;" parent="mhta7YEURF0iadP7prVW-33" vertex="1">
          <mxGeometry y="50" width="185" height="70" as="geometry" />
        </mxCell>
        <mxCell id="mhta7YEURF0iadP7prVW-29" value="STEP_INVS_InitDesign" style="swimlane;startSize=50;" parent="mhta7YEURF0iadP7prVW-23" vertex="1">
          <mxGeometry x="290" width="370" height="820" as="geometry">
            <mxRectangle x="40" width="40" height="480" as="alternateBounds" />
          </mxGeometry>
        </mxCell>
        <mxCell id="mhta7YEURF0iadP7prVW-35" value="data-&amp;gt;TD" style="swimlane;childLayout=stackLayout;horizontal=1;startSize=50;horizontalStack=0;rounded=1;fontSize=14;fontStyle=0;strokeWidth=2;resizeParent=0;resizeLast=1;shadow=0;dashed=0;align=center;arcSize=4;whiteSpace=wrap;html=1;" parent="mhta7YEURF0iadP7prVW-29" vertex="1">
          <mxGeometry x="80" y="100" width="205" height="290" as="geometry" />
        </mxCell>
        <mxCell id="mhta7YEURF0iadP7prVW-36" value="1.&amp;lt;&amp;gt;CP-top_module&amp;lt;&amp;gt;&lt;div&gt;2.&amp;lt;&amp;gt;CP-init_gnd_net&amp;lt;&amp;gt;&lt;/div&gt;&lt;div&gt;3.&amp;lt;&amp;gt;CP-init_pwr_net&amp;lt;&amp;gt;&lt;/div&gt;&lt;div&gt;4.&amp;lt;&amp;gt;CP-init_verilog&amp;lt;&amp;gt;&lt;/div&gt;&lt;div&gt;5.&amp;lt;&amp;gt;CP-mmmc_file&amp;lt;&amp;gt;&lt;/div&gt;&lt;div&gt;&lt;br&gt;&lt;/div&gt;&lt;div&gt;6.&amp;lt;&amp;gt;CLP-PRtech&amp;lt;&amp;gt;&lt;/div&gt;&lt;div&gt;7.&amp;lt;&amp;gt;CLP-ndr_lef&amp;lt;&amp;gt;&lt;/div&gt;&lt;div&gt;8.&amp;lt;&amp;gt;CLP-lef_list&amp;lt;&amp;gt;&lt;/div&gt;&lt;div&gt;9.&amp;lt;&amp;gt;CLP-sub_block_lef_list&lt;/div&gt;&lt;div&gt;&lt;br&gt;&lt;/div&gt;&lt;div&gt;10.&amp;lt;&amp;gt;TP-RETURN_AFTER_INIT&amp;lt;&amp;gt;&lt;/div&gt;" style="align=left;strokeColor=none;fillColor=none;spacingLeft=4;fontSize=12;verticalAlign=top;resizable=0;rotatable=0;part=1;html=1;" parent="mhta7YEURF0iadP7prVW-35" vertex="1">
          <mxGeometry y="50" width="205" height="240" as="geometry" />
        </mxCell>
        <mxCell id="mhta7YEURF0iadP7prVW-37" value="common_script" style="swimlane;childLayout=stackLayout;horizontal=1;startSize=50;horizontalStack=0;rounded=1;fontSize=14;fontStyle=0;strokeWidth=2;resizeParent=0;resizeLast=1;shadow=0;dashed=0;align=center;arcSize=4;whiteSpace=wrap;html=1;" parent="mhta7YEURF0iadP7prVW-29" vertex="1">
          <mxGeometry x="80" y="570" width="205" height="120" as="geometry" />
        </mxCell>
        <mxCell id="mhta7YEURF0iadP7prVW-38" value="1.&amp;lt;&amp;gt;SFILE-report_init_timing.tcl&amp;lt;&amp;gt;" style="align=left;strokeColor=none;fillColor=none;spacingLeft=4;fontSize=12;verticalAlign=top;resizable=0;rotatable=0;part=1;html=1;" parent="mhta7YEURF0iadP7prVW-37" vertex="1">
          <mxGeometry y="50" width="205" height="70" as="geometry" />
        </mxCell>
        <mxCell id="mhta7YEURF0iadP7prVW-39" value="process_setting" style="swimlane;childLayout=stackLayout;horizontal=1;startSize=50;horizontalStack=0;rounded=1;fontSize=14;fontStyle=0;strokeWidth=2;resizeParent=0;resizeLast=1;shadow=0;dashed=0;align=center;arcSize=4;whiteSpace=wrap;html=1;" parent="mhta7YEURF0iadP7prVW-29" vertex="1">
          <mxGeometry x="60" y="410" width="245" height="120" as="geometry" />
        </mxCell>
        <mxCell id="mhta7YEURF0iadP7prVW-40" value="1.&amp;lt;&amp;gt;SPROCESS-gen_ndr.tcl&amp;lt;&amp;gt;&lt;div&gt;2.&amp;lt;&amp;gt;SPROCESS-init_swap_weak_cell.tcl&lt;/div&gt;" style="align=left;strokeColor=none;fillColor=none;spacingLeft=4;fontSize=12;verticalAlign=top;resizable=0;rotatable=0;part=1;html=1;" parent="mhta7YEURF0iadP7prVW-39" vertex="1">
          <mxGeometry y="50" width="245" height="70" as="geometry" />
        </mxCell>
        <mxCell id="mhta7YEURF0iadP7prVW-25" value="STEP_INVS_preFP" style="swimlane;startSize=50;" parent="mhta7YEURF0iadP7prVW-23" vertex="1">
          <mxGeometry x="660" width="290" height="820" as="geometry" />
        </mxCell>
        <mxCell id="mhta7YEURF0iadP7prVW-43" value="common_script" style="swimlane;childLayout=stackLayout;horizontal=1;startSize=50;horizontalStack=0;rounded=1;fontSize=14;fontStyle=0;strokeWidth=2;resizeParent=0;resizeLast=1;shadow=0;dashed=0;align=center;arcSize=4;whiteSpace=wrap;html=1;" parent="mhta7YEURF0iadP7prVW-25" vertex="1">
          <mxGeometry x="42.5" y="130" width="227.5" height="120" as="geometry" />
        </mxCell>
        <mxCell id="mhta7YEURF0iadP7prVW-44" value="1.&amp;lt;&amp;gt;CFILE-preFP_update_timing.tcl&amp;lt;&amp;gt;&lt;div&gt;2.&amp;lt;&amp;gt;CFILE-preFP_setting.tcl&lt;/div&gt;" style="align=left;strokeColor=none;fillColor=none;spacingLeft=4;fontSize=12;verticalAlign=top;resizable=0;rotatable=0;part=1;html=1;" parent="mhta7YEURF0iadP7prVW-43" vertex="1">
          <mxGeometry y="50" width="227.5" height="70" as="geometry" />
        </mxCell>
        <mxCell id="mhta7YEURF0iadP7prVW-26" value="STEP_INVS_FloorPlan" style="swimlane;startSize=50;" parent="mhta7YEURF0iadP7prVW-23" vertex="1">
          <mxGeometry x="950" width="350" height="820" as="geometry" />
        </mxCell>
        <mxCell id="mhta7YEURF0iadP7prVW-45" value="common_script" style="swimlane;childLayout=stackLayout;horizontal=1;startSize=50;horizontalStack=0;rounded=1;fontSize=14;fontStyle=0;strokeWidth=2;resizeParent=0;resizeLast=1;shadow=0;dashed=0;align=center;arcSize=4;whiteSpace=wrap;html=1;" parent="mhta7YEURF0iadP7prVW-26" vertex="1">
          <mxGeometry x="35" y="240" width="280" height="240" as="geometry" />
        </mxCell>
        <mxCell id="mhta7YEURF0iadP7prVW-46" value="1.&amp;lt;&amp;gt;OFILE-UPF_FLOW-load_upf.tcl&amp;lt;&amp;gt;&lt;div data-sider-select-id=&quot;37233f9e-9728-476a-91f1-3f75c37eaeca&quot;&gt;2.&amp;lt;&amp;gt;SFILE-PR_load_floorplan.tcl&amp;lt;&amp;gt;&lt;/div&gt;&lt;div data-sider-select-id=&quot;54b67e42-05df-441d-9753-36abf8849b81&quot;&gt;3.&amp;lt;&amp;gt;SFILE-add_IO_buffer.tcl&amp;lt;&amp;gt;&lt;/div&gt;&lt;div data-sider-select-id=&quot;c13e0588-0c44-40f8-9be1-9685f4f14b94&quot;&gt;4.&amp;lt;&amp;gt;OFILE-DO_GACELL-add_gate_array.tcl&amp;lt;&amp;gt;&lt;/div&gt;&lt;div data-sider-select-id=&quot;c13e0588-0c44-40f8-9be1-9685f4f14b94&quot;&gt;5.&amp;lt;&amp;gt;SFILE-PR_physical_verify.tcl&amp;lt;&amp;gt;&lt;/div&gt;&lt;div data-sider-select-id=&quot;c13e0588-0c44-40f8-9be1-9685f4f14b94&quot;&gt;6.&amp;lt;&amp;gt;SFILE-PR_timing_report.tcl&amp;lt;&amp;gt;&lt;/div&gt;" style="align=left;strokeColor=none;fillColor=none;spacingLeft=4;fontSize=12;verticalAlign=top;resizable=0;rotatable=0;part=1;html=1;" parent="mhta7YEURF0iadP7prVW-45" vertex="1">
          <mxGeometry y="50" width="280" height="190" as="geometry" />
        </mxCell>
        <mxCell id="mhta7YEURF0iadP7prVW-47" value="process_setting" style="swimlane;childLayout=stackLayout;horizontal=1;startSize=50;horizontalStack=0;rounded=1;fontSize=14;fontStyle=0;strokeWidth=2;resizeParent=0;resizeLast=1;shadow=0;dashed=0;align=center;arcSize=4;whiteSpace=wrap;html=1;" parent="mhta7YEURF0iadP7prVW-26" vertex="1">
          <mxGeometry x="25.630000000000003" y="500" width="298.75" height="290" as="geometry" />
        </mxCell>
        <mxCell id="mhta7YEURF0iadP7prVW-48" value="1.&amp;lt;&amp;gt;SPROCESS-process_floorplan.tcl&amp;lt;&amp;gt;&lt;div data-sider-select-id=&quot;1a9747a1-a789-4d44-b03f-e93153c8c517&quot;&gt;2.&amp;lt;&amp;gt;SPROCESS-add_track.tcl&amp;lt;&amp;gt;&lt;/div&gt;&lt;div data-sider-select-id=&quot;1a9747a1-a789-4d44-b03f-e93153c8c517&quot;&gt;3.&amp;lt;&amp;gt;SPROCESS-add_blockage.tcl&amp;lt;&amp;gt;&lt;br&gt;&lt;/div&gt;&lt;div data-sider-select-id=&quot;1a9747a1-a789-4d44-b03f-e93153c8c517&quot;&gt;4&lt;span style=&quot;background-color: initial;&quot;&gt;.&amp;lt;&amp;gt;SPROCESS-add_boundary_cell_welltap.tcl&amp;lt;&amp;gt;&lt;/span&gt;&lt;/div&gt;&lt;div data-sider-select-id=&quot;1a9747a1-a789-4d44-b03f-e93153c8c517&quot;&gt;&lt;span style=&quot;background-color: initial;&quot;&gt;5.&amp;lt;&amp;gt;CPROCESS-REF_PG&amp;lt;&amp;gt;&lt;/span&gt;&lt;/div&gt;&lt;div data-sider-select-id=&quot;1a9747a1-a789-4d44-b03f-e93153c8c517&quot;&gt;&lt;span style=&quot;background-color: initial;&quot;&gt;&lt;br&gt;&lt;/span&gt;&lt;/div&gt;" style="align=left;strokeColor=none;fillColor=none;spacingLeft=4;fontSize=12;verticalAlign=top;resizable=0;rotatable=0;part=1;html=1;" parent="mhta7YEURF0iadP7prVW-47" vertex="1">
          <mxGeometry y="50" width="298.75" height="240" as="geometry" />
        </mxCell>
        <mxCell id="jaJCbk5uFIMZYgYl_Bjf-1" value="data-&amp;gt;TD" style="swimlane;childLayout=stackLayout;horizontal=1;startSize=50;horizontalStack=0;rounded=1;fontSize=14;fontStyle=0;strokeWidth=2;resizeParent=0;resizeLast=1;shadow=0;dashed=0;align=center;arcSize=4;whiteSpace=wrap;html=1;" parent="mhta7YEURF0iadP7prVW-26" vertex="1">
          <mxGeometry x="90" y="80" width="160" height="120" as="geometry" />
        </mxCell>
        <mxCell id="jaJCbk5uFIMZYgYl_Bjf-2" value="1.&amp;lt;&amp;gt;TP-PG_SCRIPT&amp;lt;&amp;gt;&lt;div data-sider-select-id=&quot;a3f02994-1768-41d5-9de0-733c0c3d2e88&quot;&gt;&lt;br&gt;&lt;/div&gt;" style="align=left;strokeColor=none;fillColor=none;spacingLeft=4;fontSize=12;verticalAlign=top;resizable=0;rotatable=0;part=1;html=1;" parent="jaJCbk5uFIMZYgYl_Bjf-1" vertex="1">
          <mxGeometry y="50" width="160" height="70" as="geometry" />
        </mxCell>
        <mxCell id="jaJCbk5uFIMZYgYl_Bjf-3" value="FJS数据来源" style="swimlane;fontStyle=0;childLayout=stackLayout;horizontal=1;startSize=30;horizontalStack=0;resizeParent=1;resizeParentMax=0;resizeLast=0;collapsible=1;marginBottom=0;align=center;fontSize=14;" parent="1" vertex="1">
          <mxGeometry x="120" y="2450" width="400" height="120" as="geometry" />
        </mxCell>
        <mxCell id="jaJCbk5uFIMZYgYl_Bjf-4" value="TD（字典）：该字典中存放了ticket和setup文件的所有信息" style="text;strokeColor=none;fillColor=none;spacingLeft=4;spacingRight=4;overflow=hidden;rotatable=0;points=[[0,0.5],[1,0.5]];portConstraint=eastwest;fontSize=12;whiteSpace=wrap;html=1;" parent="jaJCbk5uFIMZYgYl_Bjf-3" vertex="1">
          <mxGeometry y="30" width="400" height="30" as="geometry" />
        </mxCell>
        <mxCell id="jaJCbk5uFIMZYgYl_Bjf-5" value="common_script:该文件夹下存放的tcl文件为flow中的common setting" style="text;strokeColor=none;fillColor=none;spacingLeft=4;spacingRight=4;overflow=hidden;rotatable=0;points=[[0,0.5],[1,0.5]];portConstraint=eastwest;fontSize=12;whiteSpace=wrap;html=1;" parent="jaJCbk5uFIMZYgYl_Bjf-3" vertex="1">
          <mxGeometry y="60" width="400" height="30" as="geometry" />
        </mxCell>
        <mxCell id="jaJCbk5uFIMZYgYl_Bjf-6" value="process_setting:该文件夹下存放的tcl文件与工艺相关" style="text;strokeColor=none;fillColor=none;spacingLeft=4;spacingRight=4;overflow=hidden;rotatable=0;points=[[0,0.5],[1,0.5]];portConstraint=eastwest;fontSize=12;whiteSpace=wrap;html=1;" parent="jaJCbk5uFIMZYgYl_Bjf-3" vertex="1">
          <mxGeometry y="90" width="400" height="30" as="geometry" />
        </mxCell>
        <mxCell id="gIjctwiWrMdnEMl1FcRl-1" value="flow_step_map" style="rounded=0;whiteSpace=wrap;html=1;" vertex="1" parent="1">
          <mxGeometry x="190" y="2640" width="120" height="60" as="geometry" />
        </mxCell>
        <mxCell id="gIjctwiWrMdnEMl1FcRl-2" value="step1" style="shape=partialRectangle;whiteSpace=wrap;html=1;left=0;right=0;fillColor=none;" vertex="1" parent="1">
          <mxGeometry x="200" y="2730" width="90" height="40" as="geometry" />
        </mxCell>
        <mxCell id="gIjctwiWrMdnEMl1FcRl-3" value="step2" style="shape=partialRectangle;whiteSpace=wrap;html=1;left=0;right=0;fillColor=none;" vertex="1" parent="1">
          <mxGeometry x="200" y="2800" width="90" height="40" as="geometry" />
        </mxCell>
        <mxCell id="gIjctwiWrMdnEMl1FcRl-4" value="step3" style="shape=partialRectangle;whiteSpace=wrap;html=1;left=0;right=0;fillColor=none;" vertex="1" parent="1">
          <mxGeometry x="200" y="2870" width="90" height="40" as="geometry" />
        </mxCell>
        <mxCell id="gIjctwiWrMdnEMl1FcRl-5" value="step4" style="shape=partialRectangle;whiteSpace=wrap;html=1;left=0;right=0;fillColor=none;" vertex="1" parent="1">
          <mxGeometry x="200" y="2940" width="90" height="40" as="geometry" />
        </mxCell>
        <mxCell id="gIjctwiWrMdnEMl1FcRl-7" value="tcl文件" style="html=1;shadow=0;dashed=0;align=center;verticalAlign=middle;shape=mxgraph.arrows2.arrow;dy=0;dx=10;notch=10;" vertex="1" parent="1">
          <mxGeometry x="330" y="2735" width="70" height="15" as="geometry" />
        </mxCell>
        <mxCell id="gIjctwiWrMdnEMl1FcRl-8" value="tcl文件" style="html=1;shadow=0;dashed=0;align=center;verticalAlign=middle;shape=mxgraph.arrows2.arrow;dy=0;dx=10;notch=10;" vertex="1" parent="1">
          <mxGeometry x="330" y="2780" width="70" height="15" as="geometry" />
        </mxCell>
        <mxCell id="gIjctwiWrMdnEMl1FcRl-9" value="tcl文件" style="html=1;shadow=0;dashed=0;align=center;verticalAlign=middle;shape=mxgraph.arrows2.arrow;dy=0;dx=10;notch=10;" vertex="1" parent="1">
          <mxGeometry x="330" y="2820" width="70" height="15" as="geometry" />
        </mxCell>
        <mxCell id="gIjctwiWrMdnEMl1FcRl-10" value="tcl文件" style="html=1;shadow=0;dashed=0;align=center;verticalAlign=middle;shape=mxgraph.arrows2.arrow;dy=0;dx=10;notch=10;" vertex="1" parent="1">
          <mxGeometry x="330" y="2870" width="70" height="15" as="geometry" />
        </mxCell>
        <mxCell id="gIjctwiWrMdnEMl1FcRl-11" value="tcl文件" style="html=1;shadow=0;dashed=0;align=center;verticalAlign=middle;shape=mxgraph.arrows2.arrow;dy=0;dx=10;notch=10;" vertex="1" parent="1">
          <mxGeometry x="330" y="2910" width="70" height="15" as="geometry" />
        </mxCell>
        <mxCell id="gIjctwiWrMdnEMl1FcRl-12" value="tcl文件" style="html=1;shadow=0;dashed=0;align=center;verticalAlign=middle;shape=mxgraph.arrows2.arrow;dy=0;dx=10;notch=10;" vertex="1" parent="1">
          <mxGeometry x="330" y="2952.5" width="70" height="15" as="geometry" />
        </mxCell>
        <mxCell id="gIjctwiWrMdnEMl1FcRl-14" value="floorplan.tcl" style="shape=process;whiteSpace=wrap;html=1;backgroundOutline=1;" vertex="1" parent="1">
          <mxGeometry x="60" y="2830" width="100" height="50" as="geometry" />
        </mxCell>
        <mxCell id="gIjctwiWrMdnEMl1FcRl-16" value="setup.tcl" style="shape=display;whiteSpace=wrap;html=1;" vertex="1" parent="1">
          <mxGeometry x="440" y="2810" width="140" height="60" as="geometry" />
        </mxCell>
        <mxCell id="gIjctwiWrMdnEMl1FcRl-17" value="" style="strokeWidth=2;html=1;shape=mxgraph.flowchart.annotation_2;align=left;labelPosition=right;pointerEvents=1;" vertex="1" parent="1">
          <mxGeometry x="160" y="2720" width="50" height="270" as="geometry" />
        </mxCell>
      </root>
    </mxGraphModel>
  </diagram>
</mxfile>
